<?xml version="1.0" encoding="UTF-8"?>
<svg width="194px" height="194px" viewBox="0 0 194 194" version="1.1" xmlns="http://www.w3.org/2000/svg" xmlns:xlink="http://www.w3.org/1999/xlink">
    <title>Artboard</title>
    <g id="Artboard" stroke="none" stroke-width="1" fill="none" fill-rule="evenodd">
        <g id="logo" transform="translate(0.000000, 16.000000)" fill-rule="nonzero">
            <path d="M186.57824,0 C190.65956,0 194,3.33936 194,7.42176 L194,7.42176 L194,154.57824 C194,158.65956 190.66064,162 186.57824,162 L186.57824,162 L39.42176,162 C35.34044,162 32,158.66064 32,154.57824 L32,154.57824 L32,137 L21.2222857,137 C18.415667,136.991365 16.1289353,134.795804 16.0052415,132.042055 L16,131.823524 L16,113 L2.97808333,113 C1.39397952,112.99541 0.100197434,111.758039 0.00553699743,110.196687 L0,110.021917 L0,50.9780833 C0.00475997004,49.335309 1.33530901,48.00476 2.97808333,48 L2.97808333,48 L16,48 L16,29.1764762 C16.0087118,26.3944769 18.2237022,24.1278043 21.0018206,24.0051955 L21.2222857,24 L32,24 L32,7.42176 C32,3.4220664 35.2071213,0.133913952 39.1777284,0.00398773152 L39.42176,0 Z" id="border" fill="#FFFFFF"></path>
            <g id="bitcoin_noletters" transform="translate(7.000000, 5.000000)">
                <path d="M37.372,150.5 L173.628,150.5 C177.408,150.5 180.5,147.407 180.5,143.628 L180.5,7.372 C180.5,3.592 177.407,0.5 173.628,0.5 L37.372,0.5 C33.592,0.5 30.5,3.593 30.5,7.372 L30.5,143.628 C30.5,147.408 33.593,150.5 37.372,150.5 Z" id="Path" fill="#A31C37"></path>
                <path d="M20.31,128 L115.69,128 C118.343071,127.991765 120.491765,125.843071 120.5,123.19 L120.5,27.81 C120.491765,25.156929 118.343071,23.0082351 115.69,23 L20.31,23 C17.656929,23.0082351 15.5082351,25.156929 15.5,27.81 L15.5,123.19 C15.5082351,125.843071 17.656929,127.991765 20.31,128 Z" id="Path" fill="#F15A24"></path>
                <path d="M3.249,105.5 L57.751,105.5 C59.2674071,105.495606 60.4956062,104.267407 60.5,102.751 L60.5,48.25 C60.4961552,46.7332024 59.2677961,45.5043964 57.751,45.5 L3.249,45.5 C1.73259293,45.5043938 0.504393818,46.7325929 0.5,48.249 L0.5,102.751 C0.504393818,104.267407 1.73259293,105.495606 3.249,105.5 L3.249,105.5 Z" id="Path" fill="#FBB03B"></path>
            </g>
        </g>
    </g>
</svg>