/* XPM */
static char * bitcoin_abc128_xpm[] = {
"128 128 32 1",
" 	c None",
".	c #A21C37",
"+	c #A31C37",
"@	c #A31D36",
"#	c #A31C36",
"$	c #A31C38",
"%	c #B82B33",
"&	c #AD2435",
"*	c #A51D37",
"=	c #F15A24",
"-	c #EE5925",
";	c #D2422C",
">	c #A61F36",
",	c #D4432B",
"'	c #F25A24",
")	c #A82036",
"!	c #B32933",
"~	c #B42933",
"{	c #F36B29",
"]	c #F26025",
"^	c #FBB03B",
"/	c #FBAD3A",
"(	c #F4732B",
"_	c #FCB03B",
":	c #F89835",
"<	c #FAB03B",
"[	c #F99D36",
"}	c #F4722B",
"|	c #EE5825",
"1	c #D2412C",
"2	c #A31D37",
"3	c #A31B37",
"                                                                                                                                ",
"                                                                                                                                ",
"                                                                                                                                ",
"                                                                                                                                ",
"                                                                                                                                ",
"                                                                                                                                ",
"                                                                                                                                ",
"                                                                                                                                ",
"                                                                                                                                ",
"                                                                                                                                ",
"                                                                                                                                ",
"                        ..++++++++++++++++++++++++++++++++++++++++++++++++++++++++++++++++++++++++++++++++++++++++++++++++++@   ",
"                       ++++++++++++++++++++++++++++++++++++++++++++++++++++++++++++++++++++++++++++++++++++++++++++++++++++++#  ",
"                      +++++++++++++++++++++++++++++++++++++++++++++++++++++++++++++++++++++++++++++++++++++++++++++++++++++++++ ",
"                      +++++++++++++++++++++++++++++++++++++++++++++++++++++++++++++++++++++++++++++++++++++++++++++++++++++++++ ",
"                      +++++++++++++++++++++++++++++++++++++++++++++++++++++++++++++++++++++++++++++++++++++++++++++++++++++++++$",
"                      +++++++++++++++++++++++++++++++++++++++++++++++++++++++++++++++++++++++++++++++++++++++++++++++++++++++++#",
"                      +++++++++++++++++++++++++++++++++++++++++++++++++++++++++++++++++++++++++++++++++++++++++++++++++++++++++#",
"                      +++++++++++++++++++++++++++++++++++++++++++++++++++++++++++++++++++++++++++++++++++++++++++++++++++++++++#",
"                      +++++++++++++++++++++++++++++++++++++++++++++++++++++++++++++++++++++++++++++++++++++++++++++++++++++++++#",
"                      +++++++++++++++++++++++++++++++++++++++++++++++++++++++++++++++++++++++++++++++++++++++++++++++++++++++++#",
"                      +++++++++++++++++++++++++++++++++++++++++++++++++++++++++++++++++++++++++++++++++++++++++++++++++++++++++#",
"                      +++++++++++++++++++++++++++++++++++++++++++++++++++++++++++++++++++++++++++++++++++++++++++++++++++++++++#",
"                      +++++++++++++++++++++++++++++++++++++++++++++++++++++++++++++++++++++++++++++++++++++++++++++++++++++++++#",
"                      +++++++++++++++++++++++++++++++++++++++++++++++++++++++++++++++++++++++++++++++++++++++++++++++++++++++++#",
"                      +++++++++++++++++++++++++++++++++++++++++++++++++++++++++++++++++++++++++++++++++++++++++++++++++++++++++#",
"                     %&&&&&&&&&&&&&&&&&&&&&&&&&&&&&&&&&&&&&&&&&&&&&&&&&&&&&&&&&&&&*++++++++++++++++++++++++++++++++++++++++++++#",
"            ======================================================================-;>++++++++++++++++++++++++++++++++++++++++++#",
"            ========================================================================,++++++++++++++++++++++++++++++++++++++++++#",
"           '=========================================================================)+++++++++++++++++++++++++++++++++++++++++#",
"           ==========================================================================!+++++++++++++++++++++++++++++++++++++++++#",
"           ==========================================================================~+++++++++++++++++++++++++++++++++++++++++#",
"           ==========================================================================~+++++++++++++++++++++++++++++++++++++++++#",
"           ==========================================================================~+++++++++++++++++++++++++++++++++++++++++#",
"           ==========================================================================~+++++++++++++++++++++++++++++++++++++++++#",
"           ==========================================================================~+++++++++++++++++++++++++++++++++++++++++#",
"           ==========================================================================~+++++++++++++++++++++++++++++++++++++++++#",
"           ==========================================================================~+++++++++++++++++++++++++++++++++++++++++#",
"           ==========================================================================~+++++++++++++++++++++++++++++++++++++++++#",
"           ==========================================================================~+++++++++++++++++++++++++++++++++++++++++#",
"           ==========================================================================~+++++++++++++++++++++++++++++++++++++++++#",
"           ==========================================================================~+++++++++++++++++++++++++++++++++++++++++#",
"           {{{{{{{{{{{{{{{{{{{{{{{{{{{{{{]===========================================~+++++++++++++++++++++++++++++++++++++++++#",
" ^^^^^^^^^^^^^^^^^^^^^^^^^^^^^^^^^^^^^^^^/(==========================================~+++++++++++++++++++++++++++++++++++++++++#",
"_^^^^^^^^^^^^^^^^^^^^^^^^^^^^^^^^^^^^^^^^^:==========================================~+++++++++++++++++++++++++++++++++++++++++#",
"<^^^^^^^^^^^^^^^^^^^^^^^^^^^^^^^^^^^^^^^^^[==========================================~+++++++++++++++++++++++++++++++++++++++++#",
"<^^^^^^^^^^^^^^^^^^^^^^^^^^^^^^^^^^^^^^^^^[==========================================~+++++++++++++++++++++++++++++++++++++++++#",
"<^^^^^^^^^^^^^^^^^^^^^^^^^^^^^^^^^^^^^^^^^[==========================================~+++++++++++++++++++++++++++++++++++++++++#",
"<^^^^^^^^^^^^^^^^^^^^^^^^^^^^^^^^^^^^^^^^^[==========================================~+++++++++++++++++++++++++++++++++++++++++#",
"<^^^^^^^^^^^^^^^^^^^^^^^^^^^^^^^^^^^^^^^^^[==========================================~+++++++++++++++++++++++++++++++++++++++++#",
"<^^^^^^^^^^^^^^^^^^^^^^^^^^^^^^^^^^^^^^^^^[==========================================~+++++++++++++++++++++++++++++++++++++++++#",
"<^^^^^^^^^^^^^^^^^^^^^^^^^^^^^^^^^^^^^^^^^[==========================================~+++++++++++++++++++++++++++++++++++++++++#",
"<^^^^^^^^^^^^^^^^^^^^^^^^^^^^^^^^^^^^^^^^^[==========================================~+++++++++++++++++++++++++++++++++++++++++#",
"<^^^^^^^^^^^^^^^^^^^^^^^^^^^^^^^^^^^^^^^^^[==========================================~+++++++++++++++++++++++++++++++++++++++++#",
"<^^^^^^^^^^^^^^^^^^^^^^^^^^^^^^^^^^^^^^^^^[==========================================~+++++++++++++++++++++++++++++++++++++++++#",
"<^^^^^^^^^^^^^^^^^^^^^^^^^^^^^^^^^^^^^^^^^[==========================================~+++++++++++++++++++++++++++++++++++++++++#",
"<^^^^^^^^^^^^^^^^^^^^^^^^^^^^^^^^^^^^^^^^^[==========================================~+++++++++++++++++++++++++++++++++++++++++#",
"<^^^^^^^^^^^^^^^^^^^^^^^^^^^^^^^^^^^^^^^^^[==========================================~+++++++++++++++++++++++++++++++++++++++++#",
"<^^^^^^^^^^^^^^^^^^^^^^^^^^^^^^^^^^^^^^^^^[==========================================~+++++++++++++++++++++++++++++++++++++++++#",
"<^^^^^^^^^^^^^^^^^^^^^^^^^^^^^^^^^^^^^^^^^[==========================================~+++++++++++++++++++++++++++++++++++++++++#",
"<^^^^^^^^^^^^^^^^^^^^^^^^^^^^^^^^^^^^^^^^^[==========================================~+++++++++++++++++++++++++++++++++++++++++#",
"<^^^^^^^^^^^^^^^^^^^^^^^^^^^^^^^^^^^^^^^^^[==========================================~+++++++++++++++++++++++++++++++++++++++++#",
"<^^^^^^^^^^^^^^^^^^^^^^^^^^^^^^^^^^^^^^^^^[==========================================~+++++++++++++++++++++++++++++++++++++++++#",
"<^^^^^^^^^^^^^^^^^^^^^^^^^^^^^^^^^^^^^^^^^[==========================================~+++++++++++++++++++++++++++++++++++++++++#",
"<^^^^^^^^^^^^^^^^^^^^^^^^^^^^^^^^^^^^^^^^^[==========================================~+++++++++++++++++++++++++++++++++++++++++#",
"<^^^^^^^^^^^^^^^^^^^^^^^^^^^^^^^^^^^^^^^^^[==========================================~+++++++++++++++++++++++++++++++++++++++++#",
"<^^^^^^^^^^^^^^^^^^^^^^^^^^^^^^^^^^^^^^^^^[==========================================~+++++++++++++++++++++++++++++++++++++++++#",
"<^^^^^^^^^^^^^^^^^^^^^^^^^^^^^^^^^^^^^^^^^[==========================================~+++++++++++++++++++++++++++++++++++++++++#",
"<^^^^^^^^^^^^^^^^^^^^^^^^^^^^^^^^^^^^^^^^^[==========================================~+++++++++++++++++++++++++++++++++++++++++#",
"<^^^^^^^^^^^^^^^^^^^^^^^^^^^^^^^^^^^^^^^^^[==========================================~+++++++++++++++++++++++++++++++++++++++++#",
"<^^^^^^^^^^^^^^^^^^^^^^^^^^^^^^^^^^^^^^^^^[==========================================~+++++++++++++++++++++++++++++++++++++++++#",
"<^^^^^^^^^^^^^^^^^^^^^^^^^^^^^^^^^^^^^^^^^[==========================================~+++++++++++++++++++++++++++++++++++++++++#",
"<^^^^^^^^^^^^^^^^^^^^^^^^^^^^^^^^^^^^^^^^^[==========================================~+++++++++++++++++++++++++++++++++++++++++#",
"<^^^^^^^^^^^^^^^^^^^^^^^^^^^^^^^^^^^^^^^^^[==========================================~+++++++++++++++++++++++++++++++++++++++++#",
"<^^^^^^^^^^^^^^^^^^^^^^^^^^^^^^^^^^^^^^^^^[==========================================~+++++++++++++++++++++++++++++++++++++++++#",
"<^^^^^^^^^^^^^^^^^^^^^^^^^^^^^^^^^^^^^^^^^[==========================================~+++++++++++++++++++++++++++++++++++++++++#",
"<^^^^^^^^^^^^^^^^^^^^^^^^^^^^^^^^^^^^^^^^^[==========================================~+++++++++++++++++++++++++++++++++++++++++#",
"<^^^^^^^^^^^^^^^^^^^^^^^^^^^^^^^^^^^^^^^^^[==========================================~+++++++++++++++++++++++++++++++++++++++++#",
"<^^^^^^^^^^^^^^^^^^^^^^^^^^^^^^^^^^^^^^^^^[==========================================~+++++++++++++++++++++++++++++++++++++++++#",
"<^^^^^^^^^^^^^^^^^^^^^^^^^^^^^^^^^^^^^^^^^[==========================================~+++++++++++++++++++++++++++++++++++++++++#",
"<^^^^^^^^^^^^^^^^^^^^^^^^^^^^^^^^^^^^^^^^^[==========================================~+++++++++++++++++++++++++++++++++++++++++#",
"<^^^^^^^^^^^^^^^^^^^^^^^^^^^^^^^^^^^^^^^^^[==========================================~+++++++++++++++++++++++++++++++++++++++++#",
"<^^^^^^^^^^^^^^^^^^^^^^^^^^^^^^^^^^^^^^^^^[==========================================~+++++++++++++++++++++++++++++++++++++++++#",
"_^^^^^^^^^^^^^^^^^^^^^^^^^^^^^^^^^^^^^^^^^:==========================================~+++++++++++++++++++++++++++++++++++++++++#",
" ^^^^^^^^^^^^^^^^^^^^^^^^^^^^^^^^^^^^^^^^/}==========================================~+++++++++++++++++++++++++++++++++++++++++#",
"           {{{{{{{{{{{{{{{{{{{{{{{{{{{{{{]===========================================~+++++++++++++++++++++++++++++++++++++++++#",
"           ==========================================================================~+++++++++++++++++++++++++++++++++++++++++#",
"           ==========================================================================~+++++++++++++++++++++++++++++++++++++++++#",
"           ==========================================================================~+++++++++++++++++++++++++++++++++++++++++#",
"           ==========================================================================~+++++++++++++++++++++++++++++++++++++++++#",
"           ==========================================================================~+++++++++++++++++++++++++++++++++++++++++#",
"           ==========================================================================~+++++++++++++++++++++++++++++++++++++++++#",
"           ==========================================================================~+++++++++++++++++++++++++++++++++++++++++#",
"           ==========================================================================~+++++++++++++++++++++++++++++++++++++++++#",
"           ==========================================================================~+++++++++++++++++++++++++++++++++++++++++#",
"           ==========================================================================~+++++++++++++++++++++++++++++++++++++++++#",
"           ==========================================================================~+++++++++++++++++++++++++++++++++++++++++#",
"           ==========================================================================!+++++++++++++++++++++++++++++++++++++++++#",
"           ==========================================================================)+++++++++++++++++++++++++++++++++++++++++#",
"            ========================================================================,++++++++++++++++++++++++++++++++++++++++++#",
"             =====================================================================|1>++++++++++++++++++++++++++++++++++++++++++#",
"                     %&&&&&&&&&&&&&&&&&&&&&&&&&&&&&&&&&&&&&&&&&&&&&&&&&&&&&&&&&&&&*++++++++++++++++++++++++++++++++++++++++++++#",
"                      +++++++++++++++++++++++++++++++++++++++++++++++++++++++++++++++++++++++++++++++++++++++++++++++++++++++++#",
"                      +++++++++++++++++++++++++++++++++++++++++++++++++++++++++++++++++++++++++++++++++++++++++++++++++++++++++#",
"                      +++++++++++++++++++++++++++++++++++++++++++++++++++++++++++++++++++++++++++++++++++++++++++++++++++++++++#",
"                      +++++++++++++++++++++++++++++++++++++++++++++++++++++++++++++++++++++++++++++++++++++++++++++++++++++++++#",
"                      +++++++++++++++++++++++++++++++++++++++++++++++++++++++++++++++++++++++++++++++++++++++++++++++++++++++++#",
"                      +++++++++++++++++++++++++++++++++++++++++++++++++++++++++++++++++++++++++++++++++++++++++++++++++++++++++#",
"                      +++++++++++++++++++++++++++++++++++++++++++++++++++++++++++++++++++++++++++++++++++++++++++++++++++++++++#",
"                      +++++++++++++++++++++++++++++++++++++++++++++++++++++++++++++++++++++++++++++++++++++++++++++++++++++++++#",
"                      +++++++++++++++++++++++++++++++++++++++++++++++++++++++++++++++++++++++++++++++++++++++++++++++++++++++++#",
"                      +++++++++++++++++++++++++++++++++++++++++++++++++++++++++++++++++++++++++++++++++++++++++++++++++++++++++#",
"                      +++++++++++++++++++++++++++++++++++++++++++++++++++++++++++++++++++++++++++++++++++++++++++++++++++++++++#",
"                      +++++++++++++++++++++++++++++++++++++++++++++++++++++++++++++++++++++++++++++++++++++++++++++++++++++++++ ",
"                      2++++++++++++++++++++++++++++++++++++++++++++++++++++++++++++++++++++++++++++++++++++++++++++++++++++++++ ",
"                       3+++++++++++++++++++++++++++++++++++++++++++++++++++++++++++++++++++++++++++++++++++++++++++++++++++++#  ",
"                        #+++++++++++++++++++++++++++++++++++++++++++++++++++++++++++++++++++++++++++++++++++++++++++++++++++3   ",
"                                                                                                                                ",
"                                                                                                                                ",
"                                                                                                                                ",
"                                                                                                                                ",
"                                                                                                                                ",
"                                                                                                                                ",
"                                                                                                                                ",
"                                                                                                                                ",
"                                                                                                                                ",
"                                                                                                                                ",
"                                                                                                                                "};
