/* XPM */
static char * bitcoin_abc32_xpm[] = {
"32 32 17 1",
" 	c None",
".	c #A31C37",
"+	c #A31C36",
"@	c #A31B37",
"#	c #C03230",
"$	c #B82D32",
"%	c #B32933",
"&	c #F15A24",
"*	c #B62A32",
"=	c #BB2F31",
"-	c #F79233",
";	c #F5772C",
">	c #F26827",
",	c #FBB03B",
"'	c #F89534",
")	c #F89634",
"!	c #F26727",
"                                ",
"                                ",
"                                ",
"      ..........................",
"     +.........................@",
"     +.........................@",
"     #$$$$$$$$$$$$$$%..........@",
"   &&&&&&&&&&&&&&&&&&*.........@",
"   &&&&&&&&&&&&&&&&&&=.........@",
"   &&&&&&&&&&&&&&&&&&=.........@",
"  -;;;;;;;>&&&&&&&&&&=.........@",
",,,,,,,,,,'&&&&&&&&&&=.........@",
",,,,,,,,,,)&&&&&&&&&&=.........@",
",,,,,,,,,,)&&&&&&&&&&=.........@",
",,,,,,,,,,)&&&&&&&&&&=.........@",
",,,,,,,,,,)&&&&&&&&&&=.........@",
",,,,,,,,,,)&&&&&&&&&&=.........@",
",,,,,,,,,,)&&&&&&&&&&=.........@",
",,,,,,,,,,)&&&&&&&&&&=.........@",
",,,,,,,,,,)&&&&&&&&&&=.........@",
",,,,,,,,,,'&&&&&&&&&&=.........@",
"  -;;;;;;;!&&&&&&&&&&=.........@",
"   &&&&&&&&&&&&&&&&&&=.........@",
"   &&&&&&&&&&&&&&&&&&=.........@",
"   &&&&&&&&&&&&&&&&&&*.........@",
"     #$$$$$$$$$$$$$$%..........@",
"     +.........................@",
"     +.........................@",
"      ..........................",
"                                ",
"                                ",
"                                "};
