/* XPM */
static char * bitcoin_abc16_xpm[] = {
"16 16 15 1",
" 	c None",
".	c #A31B36",
"+	c #A31C37",
"@	c #E85227",
"#	c #D7452A",
"$	c #C03330",
"%	c #F15925",
"&	c #F15A24",
"*	c #D6452A",
"=	c #FCB03C",
"-	c #F89C36",
";	c #F79333",
">	c #F36B29",
",	c #FBB03B",
"'	c #F5782C",
"                ",
"   .+++++++++++ ",
"   +++++++++++++",
"  @#######$+++++",
" %&&&&&&&&*+++++",
"=-;;;>&&&&*+++++",
",,,,,'&&&&*+++++",
",,,,,'&&&&*+++++",
",,,,,'&&&&*+++++",
",,,,,'&&&&*+++++",
"=-;;;>&&&&*+++++",
" %&&&&&&&&*+++++",
"  @#######$+++++",
"   +++++++++++++",
"   .+++++++++++ ",
"                "};
