/* XPM */
static char * bitcoin_abc64_xpm[] = {
"64 64 27 1",
" 	c None",
".	c #A41D37",
"+	c #A31C36",
"@	c #A31D36",
"#	c #A31C37",
"$	c #A31C38",
"%	c #F25A24",
"&	c #E45027",
"*	c #CD3D2D",
"=	c #C2352F",
"-	c #A41D36",
";	c #F15A24",
">	c #C4362F",
",	c #F15B25",
"'	c #D2422C",
")	c #FCB13A",
"!	c #F99B35",
"~	c #F78E31",
"{	c #F78B31",
"]	c #F26025",
"^	c #FBB03B",
"/	c #F47A2C",
"(	c #FBB03C",
"_	c #F47C2D",
":	c #F78931",
"<	c #C1352F",
"[	c #A31B37",
"                                                                ",
"                                                                ",
"                                                                ",
"                                                                ",
"                                                                ",
"             .+++++++++++++++++++++++++++++++++++++++++++++++   ",
"           @################################################### ",
"           ####################################################$",
"           #####################################################",
"           #####################################################",
"           #####################################################",
"           #####################################################",
"           #####################################################",
"       %%%&******************************=-#####################",
"      ;;;;;;;;;;;;;;;;;;;;;;;;;;;;;;;;;;;;>#####################",
"     ,;;;;;;;;;;;;;;;;;;;;;;;;;;;;;;;;;;;;'#####################",
"     ,;;;;;;;;;;;;;;;;;;;;;;;;;;;;;;;;;;;;'#####################",
"     ,;;;;;;;;;;;;;;;;;;;;;;;;;;;;;;;;;;;;'#####################",
"     ,;;;;;;;;;;;;;;;;;;;;;;;;;;;;;;;;;;;;'#####################",
"     ,;;;;;;;;;;;;;;;;;;;;;;;;;;;;;;;;;;;;'#####################",
"     ,;;;;;;;;;;;;;;;;;;;;;;;;;;;;;;;;;;;;'#####################",
" ))))!~~~~~~~~~~~~~~{];;;;;;;;;;;;;;;;;;;;'#####################",
"^^^^^^^^^^^^^^^^^^^^^/;;;;;;;;;;;;;;;;;;;;'#####################",
"(^^^^^^^^^^^^^^^^^^^^_;;;;;;;;;;;;;;;;;;;;'#####################",
"(^^^^^^^^^^^^^^^^^^^^_;;;;;;;;;;;;;;;;;;;;'#####################",
"(^^^^^^^^^^^^^^^^^^^^_;;;;;;;;;;;;;;;;;;;;'#####################",
"(^^^^^^^^^^^^^^^^^^^^_;;;;;;;;;;;;;;;;;;;;'#####################",
"(^^^^^^^^^^^^^^^^^^^^_;;;;;;;;;;;;;;;;;;;;'#####################",
"(^^^^^^^^^^^^^^^^^^^^_;;;;;;;;;;;;;;;;;;;;'#####################",
"(^^^^^^^^^^^^^^^^^^^^_;;;;;;;;;;;;;;;;;;;;'#####################",
"(^^^^^^^^^^^^^^^^^^^^_;;;;;;;;;;;;;;;;;;;;'#####################",
"(^^^^^^^^^^^^^^^^^^^^_;;;;;;;;;;;;;;;;;;;;'#####################",
"(^^^^^^^^^^^^^^^^^^^^_;;;;;;;;;;;;;;;;;;;;'#####################",
"(^^^^^^^^^^^^^^^^^^^^_;;;;;;;;;;;;;;;;;;;;'#####################",
"(^^^^^^^^^^^^^^^^^^^^_;;;;;;;;;;;;;;;;;;;;'#####################",
"(^^^^^^^^^^^^^^^^^^^^_;;;;;;;;;;;;;;;;;;;;'#####################",
"(^^^^^^^^^^^^^^^^^^^^_;;;;;;;;;;;;;;;;;;;;'#####################",
"(^^^^^^^^^^^^^^^^^^^^_;;;;;;;;;;;;;;;;;;;;'#####################",
"(^^^^^^^^^^^^^^^^^^^^_;;;;;;;;;;;;;;;;;;;;'#####################",
"(^^^^^^^^^^^^^^^^^^^^_;;;;;;;;;;;;;;;;;;;;'#####################",
"(^^^^^^^^^^^^^^^^^^^^_;;;;;;;;;;;;;;;;;;;;'#####################",
"^^^^^^^^^^^^^^^^^^^^^/;;;;;;;;;;;;;;;;;;;;'#####################",
" ))))!~~~~~~~~~~~~~~:];;;;;;;;;;;;;;;;;;;;'#####################",
"     ,;;;;;;;;;;;;;;;;;;;;;;;;;;;;;;;;;;;;'#####################",
"     ,;;;;;;;;;;;;;;;;;;;;;;;;;;;;;;;;;;;;'#####################",
"     ,;;;;;;;;;;;;;;;;;;;;;;;;;;;;;;;;;;;;'#####################",
"     ,;;;;;;;;;;;;;;;;;;;;;;;;;;;;;;;;;;;;'#####################",
"     ,;;;;;;;;;;;;;;;;;;;;;;;;;;;;;;;;;;;;'#####################",
"     ,;;;;;;;;;;;;;;;;;;;;;;;;;;;;;;;;;;;;'#####################",
"      ;;;;;;;;;;;;;;;;;;;;;;;;;;;;;;;;;;;;>#####################",
"       %%%&******************************<-#####################",
"           #####################################################",
"           #####################################################",
"           #####################################################",
"           #####################################################",
"           #####################################################",
"           ####################################################$",
"           [################################################### ",
"             .+++++++++++++++++++++++++++++++++++++++++++++++   ",
"                                                                ",
"                                                                ",
"                                                                ",
"                                                                ",
"                                                                "};
