<svg id="befd15b5-41a9-4bc2-80e1-6c03cfb8cfd2" data-name="Layer 1" xmlns="http://www.w3.org/2000/svg" viewBox="0 0 185 230"><defs><style>.b48b5cc6-edd6-4343-b609-1b5a22a47d1a{fill:#a31c37;}.af31ffc5-d35e-4fd5-8332-003467cce711{fill:#f15a24;}.bc0a95df-8084-465c-b524-77fcc567bff9{fill:#fbb03b;}.ee4d6edc-4038-467f-be2c-427d46a78ea0{fill:#f2f2f2;}</style></defs><title>BitcoinCashNode-Short</title><rect class="b48b5cc6-edd6-4343-b609-1b5a22a47d1a" x="32.5" y="2.5" width="150" height="150" rx="6.8723" transform="translate(215 155) rotate(180)"/><rect class="af31ffc5-d35e-4fd5-8332-003467cce711" x="17.5" y="25" width="105" height="105" rx="4.8106" transform="translate(140 155) rotate(180)"/><rect class="bc0a95df-8084-465c-b524-77fcc567bff9" x="2.5" y="47.5" width="60" height="60" rx="2.7489" transform="translate(65 155) rotate(180)"/><path class="ee4d6edc-4038-467f-be2c-427d46a78ea0" d="M66.3206,201.7057V226.5a1,1,0,0,1-1,1H61.13a1,1,0,0,1-1-1V201.7057a1.2654,1.2654,0,0,0-1.2618-1.2617H39.9526a1.2653,1.2653,0,0,0-1.2617,1.2617V226.5a1,1,0,0,1-1,1H33.5a1,1,0,0,1-1-1V195.2531a1,1,0,0,1,1-1H58.868A7.4525,7.4525,0,0,1,66.3206,201.7057Z"/><path class="ee4d6edc-4038-467f-be2c-427d46a78ea0" d="M98.0166,194.2531a7.437,7.437,0,0,1,7.4515,7.4526v18.3429A7.4367,7.4367,0,0,1,98.0166,227.5H79.1a7.4367,7.4367,0,0,1-7.4514-7.4514V201.7057A7.437,7.437,0,0,1,79.1,194.2531ZM79.1,200.444a1.2721,1.2721,0,0,0-1.26,1.2617v18.3429a1.2711,1.2711,0,0,0,1.26,1.2605H98.0166a1.2712,1.2712,0,0,0,1.2606-1.2605V201.7057a1.2722,1.2722,0,0,0-1.2606-1.2617Z"/><path class="ee4d6edc-4038-467f-be2c-427d46a78ea0" d="M143.5252,183.5v43a1,1,0,0,1-1,1H117.1571a7.4514,7.4514,0,0,1-7.4514-7.4514V201.7057a7.4525,7.4525,0,0,1,7.4526-7.4526h20.176V183.5a1,1,0,0,1,1-1h4.1909A1,1,0,0,1,143.5252,183.5Zm-7.4515,37.8091a1.2643,1.2643,0,0,0,1.2606-1.2605V201.7057a1.2654,1.2654,0,0,0-1.2617-1.2617H117.1571a1.2654,1.2654,0,0,0-1.2617,1.2617v18.3429a1.2642,1.2642,0,0,0,1.2606,1.2605Z"/><path class="ee4d6edc-4038-467f-be2c-427d46a78ea0" d="M182.5,201.7045V212.972a1,1,0,0,1-1,1H154.8714v6.0766a1.2643,1.2643,0,0,0,1.2606,1.2605H181.5a1,1,0,0,1,1,1V226.5a1,1,0,0,1-1,1H156.132a7.4514,7.4514,0,0,1-7.4515-7.4514V201.7057a7.4526,7.4526,0,0,1,7.4526-7.4526h18.9155A7.4514,7.4514,0,0,1,182.5,201.7045Zm-6.1909,6.0766v-6.0754a1.2653,1.2653,0,0,0-1.2617-1.2617H156.132a1.2643,1.2643,0,0,0-1.2606,1.2605v6.0766Z"/><path class="ee4d6edc-4038-467f-be2c-427d46a78ea0" d="M39.6982,185.4168a1.2406,1.2406,0,0,1-.1042.531,1.4684,1.4684,0,0,1,.406.99v1.6148A1.4537,1.4537,0,0,1,38.5416,190H32.5v-7.5h5.75a1.4517,1.4517,0,0,1,1.4482,1.4478Zm-5.75-1.5419a.0713.0713,0,0,0-.0729.0729v1.469a.0714.0714,0,0,0,.0729.0729H38.25a.07.07,0,0,0,.0628-.0729v-1.469a.07.07,0,0,0-.0628-.0729Zm4.6667,3.0625c0-.0415-.0309-.0623-.0729-.0623H33.9478c-.0415,0-.0729.0208-.0729.0623v1.6148a.0714.0714,0,0,0,.0729.0729h4.5938a.0711.0711,0,0,0,.0729-.0729Z"/><path class="ee4d6edc-4038-467f-be2c-427d46a78ea0" d="M42.1869,182.5h1.3749V190H42.1869Z"/><path class="ee4d6edc-4038-467f-be2c-427d46a78ea0" d="M52.6342,182.5v1.3749H49.5818V190h-1.385v-6.1251H45.1342V182.5Z"/><path class="ee4d6edc-4038-467f-be2c-427d46a78ea0" d="M55.9044,183.8749a.0711.0711,0,0,0-.0729.0729v4.6044a.0711.0711,0,0,0,.0729.0729h6.0311V190H55.9044a1.4449,1.4449,0,0,1-1.4482-1.4478v-4.6044A1.4449,1.4449,0,0,1,55.9044,182.5h6.0311v1.3749Z"/><path class="ee4d6edc-4038-467f-be2c-427d46a78ea0" d="M70.0907,182.5a1.4514,1.4514,0,0,1,1.4478,1.4478v4.6044A1.4514,1.4514,0,0,1,70.0907,190h-4.604a1.4449,1.4449,0,0,1-1.4482-1.4478v-4.6044A1.4449,1.4449,0,0,1,65.4867,182.5Zm0,6.1251a.07.07,0,0,0,.0627-.0729v-4.6044a.07.07,0,0,0-.0627-.0729h-4.604a.071.071,0,0,0-.0729.0729v4.6044a.0711.0711,0,0,0,.0729.0729Z"/><path class="ee4d6edc-4038-467f-be2c-427d46a78ea0" d="M73.736,182.5h1.3749V190H73.736Z"/><path class="ee4d6edc-4038-467f-be2c-427d46a78ea0" d="M83.1733,182.5h1.3855V190h-1.5l-4.6248-5.5V190H77.0584v-7.5h1.5l4.6146,5.5Z"/><path class="ee4d6edc-4038-467f-be2c-427d46a78ea0" d="M88.2139,183.8749a.071.071,0,0,0-.0729.0729v4.6044a.0711.0711,0,0,0,.0729.0729h6.031V190h-6.031a1.4449,1.4449,0,0,1-1.4482-1.4478v-4.6044A1.4449,1.4449,0,0,1,88.2139,182.5h6.031v1.3749Z"/><path class="ee4d6edc-4038-467f-be2c-427d46a78ea0" d="M102.4319,182.5a1.4539,1.4539,0,0,1,1.4584,1.4478V190h-1.3855v-2.5209h-4.74V190H96.39v-6.0522A1.4446,1.4446,0,0,1,97.8381,182.5Zm.0729,3.6042v-2.1564a.0713.0713,0,0,0-.0729-.0729H97.8381a.0713.0713,0,0,0-.0729.0729v2.1564Z"/><path class="ee4d6edc-4038-467f-be2c-427d46a78ea0" d="M113.5666,184.5208h-1.3855v-.573a.07.07,0,0,0-.0627-.0729h-4.604a.0713.0713,0,0,0-.0729.0729V185.49a.0714.0714,0,0,0,.0729.0729h4.604a1.4517,1.4517,0,0,1,1.4482,1.4477v1.5419A1.4517,1.4517,0,0,1,112.1184,190h-4.604a1.4449,1.4449,0,0,1-1.4482-1.4478v-.573h1.3753v.573a.0714.0714,0,0,0,.0729.0729h4.604a.07.07,0,0,0,.0627-.0729V187.01a.07.07,0,0,0-.0627-.0729h-4.604a1.4449,1.4449,0,0,1-1.4482-1.4477v-1.5419a1.4449,1.4449,0,0,1,1.4482-1.4478h4.604a1.4517,1.4517,0,0,1,1.4482,1.4478Z"/><path class="ee4d6edc-4038-467f-be2c-427d46a78ea0" d="M123.3989,182.5V190H122.024v-3.0626h-4.9167V190h-1.3749v-7.5h1.3749v3.0626h4.9167V182.5Z"/></svg>